<svg width="23" height="23" viewBox="0 0 23 23" fill="none" xmlns="http://www.w3.org/2000/svg">
<path fill-rule="evenodd" clip-rule="evenodd" d="M11.5 23C17.8514 23 23 17.8514 23 11.5C23 5.14855 17.8514 0 11.5 0C5.14855 0 0 5.14855 0 11.5C0 17.8514 5.14855 23 11.5 23Z" fill="#DF1B12"/>
<path fill-rule="evenodd" clip-rule="evenodd" d="M6.54176 6.30957V10.2219C7.13746 9.51232 7.85046 9.15467 8.67846 9.15467C9.10511 9.15467 9.48691 9.23632 9.82961 9.39732C10.1735 9.55832 10.4299 9.76417 10.6036 10.0137C10.7784 10.2667 10.8957 10.5427 10.9589 10.8475C11.0222 11.1511 11.0544 11.6226 11.0544 12.2631V16.4457H9.20401V12.6783C9.20401 11.9308 9.17066 11.457 9.10051 11.2557C9.03036 11.0533 8.90616 10.8935 8.72906 10.7773C8.55081 10.6566 8.32886 10.5979 8.06091 10.5979C7.75501 10.5979 7.47901 10.675 7.23981 10.8268C6.99601 10.9797 6.82006 11.2097 6.70851 11.5156C6.59581 11.8227 6.53946 12.2746 6.54061 12.8749L6.53831 16.4468H4.69141V6.30957H6.54176Z" fill="white"/>
<path fill-rule="evenodd" clip-rule="evenodd" d="M13.8277 6.30957V10.2219C14.4234 9.51232 15.1364 9.15467 15.9644 9.15467C16.3888 9.15467 16.774 9.23632 17.1167 9.39732C17.4583 9.55832 17.7159 9.76417 17.8884 10.0137C18.0632 10.2667 18.1816 10.5427 18.2437 10.8475C18.307 11.1511 18.3392 11.6226 18.3392 12.2631V16.4457H16.4911V12.6783C16.4911 11.9308 16.4566 11.457 16.3853 11.2557C16.3152 11.0533 16.1921 10.8935 16.0127 10.7773C15.8368 10.6566 15.6125 10.5979 15.3446 10.5979C15.0387 10.5979 14.7638 10.675 14.5235 10.8268C14.282 10.9797 14.106 11.2097 13.9933 11.5156C13.8829 11.8227 13.8266 12.2746 13.8266 12.8749V16.4468H11.9785V6.30957H13.8277Z" fill="white"/>
</svg>
